<svg xmlns="http://www.w3.org/2000/svg" width="512" height="512" fill="none"><path fill="#222" d="M153.6 302.933c17.067-21.333 34.133-38.4 51.2-51.2 32-27.733 59.733-38.4 59.733-38.4s-14.933 23.467-38.4 57.6c-4.266 8.534-10.666 17.067-17.066 27.734-6.4 8.533-10.667 19.2-17.067 29.866-6.4 10.667-10.667 21.334-17.067 32-4.266 10.667-12.8 23.467-17.066 34.134-4.267 10.666-10.667 23.466-14.934 34.133-2.133 4.267-4.266 10.667-6.4 14.933 70.4 40.534 164.267 32 221.867-29.866 106.667-115.2 12.8-164.267 110.933-366.934 0 0-217.6-44.8-373.333 108.8-70.4 70.4-70.4 183.467 0 256 4.267-12.8 8.533-25.6 14.933-38.4 10.667-25.6 25.6-51.2 42.667-70.4z"/></svg>